<svg width="416" height="416" viewBox="0 0 416 416" fill="none" xmlns="http://www.w3.org/2000/svg">
<rect width="416" height="416" rx="208" fill="#EDEDED"/>
<path d="M365.526 187.202L335.025 156.701L300.843 190.883C299.266 192.461 296.636 192.461 295.585 190.883L225.643 120.942C224.065 119.364 224.065 116.735 225.643 115.683L259.825 81.5009L229.324 51L50 230.324L80.5009 260.825L113.631 227.695C115.209 226.117 117.838 226.117 118.89 227.695L188.306 297.11C189.883 298.688 189.883 301.317 188.306 302.369L155.175 335.499L185.676 366L365.526 187.202ZM325.034 187.202C323.456 185.625 323.456 183.521 325.034 182.469L335.551 171.952C337.129 170.374 339.232 170.374 340.284 171.952L350.802 182.469C352.379 184.047 352.379 186.15 350.802 187.202L340.284 197.72C338.706 199.297 336.603 199.297 335.551 197.72L325.034 187.202ZM218.806 80.975C217.229 79.3974 217.229 77.2939 218.806 76.2421L229.324 65.7246C230.902 64.1469 233.005 64.1469 234.057 65.7246L244.574 76.2421C246.152 77.8197 246.152 79.9232 244.574 80.975L234.057 91.4925C232.479 93.0702 230.376 93.0702 229.324 91.4925L218.806 80.975V80.975ZM89.9667 230.324C91.5443 231.902 91.5443 234.005 89.9667 235.057L79.4491 245.574C77.8715 247.152 75.768 247.152 74.7162 245.574L64.1987 235.057C62.621 233.479 62.621 231.376 64.1987 230.324L74.7162 219.807C76.2938 218.229 78.3974 218.229 79.4491 219.807L89.9667 230.324ZM258.247 274.498C259.825 276.075 259.825 278.179 258.247 279.231L247.73 289.748C246.152 291.326 244.049 291.326 242.997 289.748L232.479 279.231C230.902 277.653 230.902 275.549 232.479 274.498L242.997 263.98C244.574 262.403 246.678 262.403 247.73 263.98L258.247 274.498ZM288.748 243.471C290.326 245.049 290.326 247.152 288.748 248.204L278.231 258.721C276.653 260.299 274.549 260.299 273.498 258.721L262.98 248.204C261.403 246.626 261.403 244.523 262.98 243.471L273.498 232.953C275.075 231.376 277.179 231.376 278.231 232.953L288.748 243.471ZM187.78 111.476C186.202 109.898 186.202 107.795 187.78 106.743L198.297 96.2254C199.875 94.6478 201.978 94.6478 203.03 96.2254L213.548 106.743C215.125 108.321 215.125 110.424 213.548 111.476L203.03 121.993C201.453 123.571 199.349 123.571 198.297 121.993L187.78 111.476V111.476ZM294.007 217.703C292.429 216.125 292.429 214.022 294.007 212.97L304.524 202.453C306.102 200.875 308.206 200.875 309.257 202.453L319.775 212.97C321.353 214.548 321.353 216.651 319.775 217.703L309.257 228.221C307.68 229.798 305.576 229.798 304.524 228.221L294.007 217.703ZM157.279 142.503C155.701 140.925 155.701 138.821 157.279 137.77L167.796 127.252C169.374 125.675 171.478 125.675 172.529 127.252L183.047 137.77C184.624 139.347 184.624 141.451 183.047 142.503L172.529 153.02C170.952 154.598 168.848 154.598 167.796 153.02L157.279 142.503ZM126.252 173.529C124.675 171.952 124.675 169.848 126.252 168.796L136.77 158.279C138.347 156.701 140.451 156.701 141.503 158.279L152.02 168.796C153.598 170.374 153.598 172.478 152.02 173.529L141.503 184.047C139.925 185.625 137.821 185.625 136.77 184.047L126.252 173.529ZM135.718 211.392C134.14 209.815 134.14 207.185 135.718 206.134L205.134 136.718C206.711 135.14 209.341 135.14 210.392 136.718L279.808 206.134C281.386 207.711 281.386 210.341 279.808 211.392L210.392 280.808C208.815 282.386 206.185 282.386 205.134 280.808L135.718 211.392V211.392ZM95.2254 204.03C93.6478 202.453 93.6478 200.349 95.2254 199.297L105.743 188.78C107.321 187.202 109.424 187.202 110.476 188.78L120.993 199.297C122.571 200.875 122.571 202.978 120.993 204.03L110.476 214.548C108.898 216.125 106.795 216.125 105.743 214.548L95.2254 204.03ZM201.453 310.257C199.875 308.68 199.875 306.576 201.453 305.524L211.97 295.007C213.548 293.429 215.651 293.429 216.703 295.007L227.221 305.524C228.798 307.102 228.798 309.206 227.221 310.257L216.703 320.775C215.125 322.353 213.022 322.353 211.97 320.775L201.453 310.257V310.257ZM170.426 341.284C168.848 339.706 168.848 337.603 170.426 336.551L180.943 326.034C182.521 324.456 184.624 324.456 185.676 326.034L196.194 336.551C197.771 338.129 197.771 340.232 196.194 341.284L185.676 351.802C184.099 353.379 181.995 353.379 180.943 351.802L170.426 341.284Z" fill="#0D0D0D"/>
<circle cx="208.167" cy="209.167" r="21.4396" fill="#0D0D0D"/>
<path d="M209.043 211.082L201.589 218.946C200.817 219.76 200.013 219.733 199.177 218.865C198.461 218.149 198.433 217.443 199.091 216.748L206.545 208.885L199.362 201.906C198.746 201.323 198.786 200.625 199.48 199.813C199.799 199.437 200.142 199.215 200.507 199.147C200.873 199.079 201.235 199.214 201.593 199.553L208.776 206.532L215.891 199.026C216.211 198.688 216.554 198.505 216.921 198.475C217.307 198.426 217.698 198.59 218.095 198.967C218.949 199.776 219.047 200.528 218.388 201.223L211.273 208.729L218.422 215.505C218.759 215.825 218.914 216.179 218.886 216.567C218.857 216.955 218.674 217.328 218.335 217.685C217.601 218.459 216.886 218.517 216.191 217.859L209.043 211.082Z" fill="#F4E874"/>
</svg>
