<svg width="2415" height="416" viewBox="0 0 2415 416" fill="none" xmlns="http://www.w3.org/2000/svg">
<path d="M930.704 282.2C937.808 282.2 942.8 280.184 945.68 276.152C948.56 272.12 950 267.608 950 262.616V130.712C950 125.912 948.56 121.496 945.68 117.464C942.8 113.432 937.808 111.416 930.704 111.416H863.312L863.024 299.192C863.024 303.416 861.392 306.776 858.128 309.272C854.864 311.768 850.832 313.016 846.032 313.016C834.704 313.016 829.04 308.408 829.04 299.192V99.608C829.04 92.696 830.768 88.088 834.224 85.784C837.872 83.48 842.192 82.328 847.184 82.328H937.904C942.896 82.328 948.08 83.384 953.456 85.496C958.832 87.608 964.016 90.296 969.008 93.56H968.72C973.712 97.208 977.552 102.008 980.24 107.96C982.928 113.72 984.272 120.44 984.272 128.12V264.92C984.272 280.472 979.088 292.088 968.72 299.768C963.728 303.416 958.544 306.296 953.168 308.408C947.984 310.328 942.896 311.288 937.904 311.288H889.52C886.256 311.288 883.664 309.944 881.744 307.256C880.016 304.568 879.152 301.016 879.152 296.6C879.152 287 883.28 282.2 891.536 282.2H930.704ZM1186 264.92C1186 280.472 1180.81 292.088 1170.44 299.768C1165.45 303.416 1160.27 306.296 1154.89 308.408C1149.71 310.328 1144.62 311.288 1139.63 311.288H1076.84C1071.85 311.288 1066.67 310.328 1061.29 308.408C1056.11 306.296 1051.02 303.416 1046.03 299.768C1041.04 295.928 1037.2 291.224 1034.51 285.656C1031.82 279.896 1030.48 272.984 1030.48 264.92V94.712C1030.48 85.496 1036.14 80.888 1047.47 80.888C1058.99 80.888 1064.75 85.496 1064.75 94.712V262.616C1064.75 267.608 1066.19 272.12 1069.07 276.152C1071.95 280.184 1076.94 282.2 1084.04 282.2H1132.43C1139.53 282.2 1144.52 280.184 1147.4 276.152C1150.28 272.12 1151.72 267.608 1151.72 262.616V94.712C1151.72 85.496 1157.39 80.888 1168.72 80.888C1180.24 80.888 1186 85.496 1186 94.712V264.92ZM1388.28 264.92C1388.28 280.472 1383.1 292.088 1372.73 299.768C1367.74 303.416 1362.55 306.296 1357.18 308.408C1351.99 310.328 1346.91 311.288 1341.91 311.288H1279.13C1274.14 311.288 1268.95 310.328 1263.58 308.408C1258.39 306.296 1253.31 303.416 1248.31 299.768C1243.32 295.928 1239.48 291.224 1236.79 285.656C1234.11 279.896 1232.76 272.984 1232.76 264.92V128.12C1232.76 120.44 1234.11 113.72 1236.79 107.96C1239.48 102.008 1243.32 97.208 1248.31 93.56H1248.03C1253.02 90.296 1258.2 87.608 1263.58 85.496C1268.95 83.384 1274.14 82.328 1279.13 82.328H1341.91C1346.91 82.328 1352.09 83.384 1357.47 85.496C1362.84 87.608 1368.03 90.296 1373.02 93.56H1372.73C1377.72 97.208 1381.56 102.008 1384.25 107.96C1386.94 113.72 1388.28 120.44 1388.28 128.12V147.992C1388.28 157.208 1382.52 161.816 1371 161.816C1359.67 161.816 1354.01 157.208 1354.01 147.992V130.712C1354.01 125.912 1352.57 121.496 1349.69 117.464C1346.81 113.432 1341.82 111.416 1334.71 111.416H1286.33C1279.23 111.416 1274.23 113.432 1271.35 117.464C1268.47 121.496 1267.03 125.912 1267.03 130.712V262.616C1267.03 267.608 1268.47 272.12 1271.35 276.152C1274.23 280.184 1279.23 282.2 1286.33 282.2H1334.71C1341.82 282.2 1346.81 280.184 1349.69 276.152C1352.57 272.12 1354.01 267.608 1354.01 262.616V245.912C1354.01 236.888 1359.67 232.376 1371 232.376C1382.52 232.376 1388.28 236.888 1388.28 245.912V264.92ZM1509.7 299.48C1509.7 308.696 1503.94 313.304 1492.42 313.304C1481.09 313.304 1475.43 308.696 1475.43 299.48V111.416H1425.03C1418.12 111.416 1414.47 106.52 1414.09 96.728C1414.09 87.128 1417.73 82.328 1425.03 82.328H1560.1C1567.4 82.328 1570.85 87.128 1570.47 96.728C1570.47 106.52 1567.01 111.416 1560.1 111.416H1509.7V299.48ZM1707.96 82.328C1712.95 82.328 1718.13 83.384 1723.51 85.496C1728.88 87.608 1734.07 90.296 1739.06 93.56H1738.77C1743.76 97.208 1747.6 102.008 1750.29 107.96C1752.98 113.72 1754.32 120.44 1754.32 128.12V264.92C1754.32 280.472 1749.14 292.088 1738.77 299.768C1733.78 303.416 1728.6 306.296 1723.22 308.408C1718.04 310.328 1712.95 311.288 1707.96 311.288H1645.17C1640.18 311.288 1635 310.328 1629.62 308.408C1624.44 306.296 1619.35 303.416 1614.36 299.768C1609.36 295.928 1605.52 291.224 1602.84 285.656C1600.15 279.896 1598.8 272.984 1598.8 264.92V128.12C1598.8 120.44 1600.15 113.72 1602.84 107.96C1605.52 102.008 1609.36 97.208 1614.36 93.56H1614.07C1619.06 90.296 1624.24 87.608 1629.62 85.496C1635 83.384 1640.18 82.328 1645.17 82.328H1707.96ZM1700.76 282.2C1707.86 282.2 1712.85 280.184 1715.73 276.152C1718.61 272.12 1720.05 267.608 1720.05 262.616V130.712C1720.05 125.912 1718.61 121.496 1715.73 117.464C1712.85 113.432 1707.86 111.416 1700.76 111.416H1652.37C1645.27 111.416 1640.28 113.432 1637.4 117.464C1634.52 121.496 1633.08 125.912 1633.08 130.712V262.616C1633.08 267.608 1634.52 272.12 1637.4 276.152C1640.28 280.184 1645.27 282.2 1652.37 282.2H1700.76ZM1882.32 216.248H1860.14C1856.88 216.248 1854.29 215 1852.37 212.504C1850.64 209.816 1849.78 206.264 1849.78 201.848C1849.78 192.056 1853.81 187.16 1861.87 187.16H1895.57C1902.67 187.16 1907.66 185.144 1910.54 181.112C1913.42 177.08 1914.86 172.664 1914.86 167.864V130.712C1914.86 125.912 1913.42 121.496 1910.54 117.464C1907.66 113.432 1902.67 111.416 1895.57 111.416H1834.8V299.192C1834.8 308.408 1829.14 313.016 1817.81 313.016C1806.48 313.016 1800.82 308.408 1800.82 299.192V99.608C1800.82 92.696 1802.54 88.088 1806 85.784C1809.65 83.48 1813.97 82.328 1818.96 82.328H1902.77C1907.76 82.328 1912.94 83.384 1918.32 85.496C1923.7 87.608 1928.88 90.296 1933.87 93.56H1933.58C1938.58 97.208 1942.42 102.008 1945.1 107.96C1947.79 113.72 1949.14 120.44 1949.14 128.12V170.168C1949.14 185.72 1943.95 197.336 1933.58 205.016C1931.47 206.552 1929.17 207.992 1926.67 209.336C1924.37 210.68 1921.97 212.024 1919.47 213.368L1965.55 289.4C1966.13 290.36 1966.7 291.608 1967.28 293.144C1967.86 294.68 1968.14 295.928 1968.14 296.888C1968.14 301.496 1964.88 305.912 1958.35 310.136V309.848C1953.94 312.536 1950.19 313.88 1947.12 313.88C1942.7 313.88 1939.15 311.672 1936.46 307.256L1936.75 307.544L1882.32 216.248ZM2073.5 110.552L2010.43 304.088V303.8C2009.28 306.68 2007.65 309.08 2005.53 311C2003.61 312.728 2001.21 313.592 1998.33 313.592C1996.8 313.592 1995.26 313.4 1993.73 313.016C1992.38 312.824 1990.94 312.536 1989.41 312.152H1989.69C1978.75 308.696 1974.72 302.552 1977.6 293.72L2043.26 94.136C2044.22 91.064 2045.85 88.472 2048.16 86.36C2050.65 84.248 2053.53 83 2056.8 82.616C2060.06 82.04 2063.23 81.656 2066.3 81.464C2069.37 81.08 2071.77 80.888 2073.5 80.888C2075.23 80.888 2077.63 81.08 2080.7 81.464C2083.77 81.656 2086.94 81.944 2090.21 82.328C2092.89 82.712 2095.49 84.152 2097.98 86.648C2100.67 89.144 2102.69 91.64 2104.03 94.136C2114.78 127.16 2125.63 160.472 2136.57 194.072C2147.71 227.48 2158.65 260.696 2169.41 293.72C2172.09 302.552 2168.06 308.696 2157.31 312.152C2155.77 312.536 2154.33 312.824 2152.99 313.016C2151.84 313.4 2150.49 313.592 2148.96 313.592C2146.27 313.592 2143.77 312.728 2141.47 311C2139.36 309.08 2137.82 306.68 2136.86 303.8V304.088L2073.5 110.552ZM2095.1 241.88C2095.1 248.024 2092.89 253.304 2088.48 257.72C2084.25 261.944 2079.07 264.056 2072.93 264.056C2066.78 264.056 2061.6 261.944 2057.37 257.72C2053.15 253.304 2051.04 248.024 2051.04 241.88C2051.04 235.736 2053.15 230.552 2057.37 226.328C2061.6 221.912 2066.78 219.704 2072.93 219.704C2079.07 219.704 2084.25 221.912 2088.48 226.328C2092.89 230.552 2095.1 235.736 2095.1 241.88ZM2307.23 209.048V285.08C2307.23 292.952 2303 296.696 2294.56 296.312C2287.45 296.12 2283.9 292.664 2283.9 285.944V209.912L2213.63 209.048C2207.68 209.048 2204.51 205.304 2204.12 197.816C2203.93 194.36 2204.6 191.576 2206.14 189.464C2207.68 187.352 2210.17 186.296 2213.63 186.296L2283.9 187.16V114.584C2283.9 111.32 2284.76 108.728 2286.49 106.808C2288.22 104.696 2291 103.64 2294.84 103.64C2303.1 103.64 2307.23 107 2307.23 113.72V186.296H2376.35C2379.61 186.296 2382.11 187.352 2383.84 189.464C2385.56 191.576 2386.43 194.36 2386.43 197.816C2386.43 205.304 2383.07 209.048 2376.35 209.048H2307.23Z" fill="#0D0D0D"/>
<path d="M85.536 238.328C82.272 238.328 79.68 237.08 77.76 234.584C76.032 231.896 75.168 228.344 75.168 223.928C75.168 214.136 79.2 209.24 87.264 209.24H117.792C124.896 209.24 129.888 207.224 132.768 203.192C135.84 199.16 137.376 194.744 137.376 189.944V142.712C137.376 137.912 135.84 133.496 132.768 129.464C129.888 125.432 124.896 123.416 117.792 123.416H57.312V311.48C57.312 320.696 51.552 325.304 40.032 325.304C28.896 325.304 23.328 320.696 23.328 311.48V111.608C23.328 104.696 25.056 100.088 28.512 97.784C31.968 95.48 36.192 94.328 41.184 94.328H125.28C130.08 94.328 135.168 95.384 140.544 97.496C145.92 99.608 151.104 102.296 156.096 105.56H155.808C160.8 109.208 164.64 114.008 167.328 119.96C170.016 125.72 171.36 132.44 171.36 140.12V192.248C171.36 207.8 166.176 219.416 155.808 227.096C150.816 230.744 145.728 233.528 140.544 235.448C135.36 237.368 130.272 238.328 125.28 238.328H85.536ZM299.518 228.248H277.342C274.078 228.248 271.486 227 269.566 224.504C267.838 221.816 266.974 218.264 266.974 213.848C266.974 204.056 271.006 199.16 279.07 199.16H312.766C319.87 199.16 324.862 197.144 327.742 193.112C330.622 189.08 332.062 184.664 332.062 179.864V142.712C332.062 137.912 330.622 133.496 327.742 129.464C324.862 125.432 319.87 123.416 312.766 123.416H251.998V311.192C251.998 320.408 246.334 325.016 235.006 325.016C223.678 325.016 218.014 320.408 218.014 311.192V111.608C218.014 104.696 219.742 100.088 223.198 97.784C226.846 95.48 231.166 94.328 236.158 94.328H319.966C324.958 94.328 330.142 95.384 335.518 97.496C340.894 99.608 346.078 102.296 351.07 105.56H350.782C355.774 109.208 359.614 114.008 362.302 119.96C364.99 125.72 366.334 132.44 366.334 140.12V182.168C366.334 197.72 361.15 209.336 350.782 217.016C348.67 218.552 346.366 219.992 343.87 221.336C341.566 222.68 339.166 224.024 336.67 225.368L382.75 301.4C383.326 302.36 383.902 303.608 384.478 305.144C385.054 306.68 385.342 307.928 385.342 308.888C385.342 313.496 382.078 317.912 375.55 322.136V321.848C371.134 324.536 367.39 325.88 364.318 325.88C359.902 325.88 356.35 323.672 353.662 319.256L353.95 319.544L299.518 228.248Z" fill="#0D0D0D"/>
<path d="M793 181.35L755.3 143.65L713.05 185.9C711.1 187.85 707.85 187.85 706.55 185.9L620.1 99.45C618.15 97.5 618.15 94.25 620.1 92.95L662.35 50.7L624.65 13L403 234.65L440.7 272.35L481.65 231.4C483.6 229.45 486.85 229.45 488.15 231.4L573.95 317.2C575.9 319.15 575.9 322.4 573.95 323.7L533 364.65L570.7 402.35L793 181.35ZM742.95 181.35C741 179.4 741 176.8 742.95 175.5L755.95 162.5C757.9 160.55 760.5 160.55 761.8 162.5L774.8 175.5C776.75 177.45 776.75 180.05 774.8 181.35L761.8 194.35C759.85 196.3 757.25 196.3 755.95 194.35L742.95 181.35ZM611.65 50.05C609.7 48.1 609.7 45.5 611.65 44.2L624.65 31.2C626.6 29.25 629.2 29.25 630.5 31.2L643.5 44.2C645.45 46.15 645.45 48.75 643.5 50.05L630.5 63.05C628.55 65 625.95 65 624.65 63.05L611.65 50.05V50.05ZM452.4 234.65C454.35 236.6 454.35 239.2 452.4 240.5L439.4 253.5C437.45 255.45 434.85 255.45 433.55 253.5L420.55 240.5C418.6 238.55 418.6 235.95 420.55 234.65L433.55 221.65C435.5 219.7 438.1 219.7 439.4 221.65L452.4 234.65ZM660.4 289.25C662.35 291.2 662.35 293.8 660.4 295.1L647.4 308.1C645.45 310.05 642.85 310.05 641.55 308.1L628.55 295.1C626.6 293.15 626.6 290.55 628.55 289.25L641.55 276.25C643.5 274.3 646.1 274.3 647.4 276.25L660.4 289.25ZM698.1 250.9C700.05 252.85 700.05 255.45 698.1 256.75L685.1 269.75C683.15 271.7 680.55 271.7 679.25 269.75L666.25 256.75C664.3 254.8 664.3 252.2 666.25 250.9L679.25 237.9C681.2 235.95 683.8 235.95 685.1 237.9L698.1 250.9ZM573.3 87.75C571.35 85.8 571.35 83.2 573.3 81.9L586.3 68.9C588.25 66.95 590.85 66.95 592.15 68.9L605.15 81.9C607.1 83.85 607.1 86.45 605.15 87.75L592.15 100.75C590.2 102.7 587.6 102.7 586.3 100.75L573.3 87.75V87.75ZM704.6 219.05C702.65 217.1 702.65 214.5 704.6 213.2L717.6 200.2C719.55 198.25 722.15 198.25 723.45 200.2L736.45 213.2C738.4 215.15 738.4 217.75 736.45 219.05L723.45 232.05C721.5 234 718.9 234 717.6 232.05L704.6 219.05ZM535.6 126.1C533.65 124.15 533.65 121.55 535.6 120.25L548.6 107.25C550.55 105.3 553.15 105.3 554.45 107.25L567.45 120.25C569.4 122.2 569.4 124.8 567.45 126.1L554.45 139.1C552.5 141.05 549.9 141.05 548.6 139.1L535.6 126.1ZM497.25 164.45C495.3 162.5 495.3 159.9 497.25 158.6L510.25 145.6C512.2 143.65 514.8 143.65 516.1 145.6L529.1 158.6C531.05 160.55 531.05 163.15 529.1 164.45L516.1 177.45C514.15 179.4 511.55 179.4 510.25 177.45L497.25 164.45ZM508.95 211.25C507 209.3 507 206.05 508.95 204.75L594.75 118.95C596.7 117 599.95 117 601.25 118.95L687.05 204.75C689 206.7 689 209.95 687.05 211.25L601.25 297.05C599.3 299 596.05 299 594.75 297.05L508.95 211.25V211.25ZM458.9 202.15C456.95 200.2 456.95 197.6 458.9 196.3L471.9 183.3C473.85 181.35 476.45 181.35 477.75 183.3L490.75 196.3C492.7 198.25 492.7 200.85 490.75 202.15L477.75 215.15C475.8 217.1 473.2 217.1 471.9 215.15L458.9 202.15ZM590.2 333.45C588.25 331.5 588.25 328.9 590.2 327.6L603.2 314.6C605.15 312.65 607.75 312.65 609.05 314.6L622.05 327.6C624 329.55 624 332.15 622.05 333.45L609.05 346.45C607.1 348.4 604.5 348.4 603.2 346.45L590.2 333.45V333.45ZM551.85 371.8C549.9 369.85 549.9 367.25 551.85 365.95L564.85 352.95C566.8 351 569.4 351 570.7 352.95L583.7 365.95C585.65 367.9 585.65 370.5 583.7 371.8L570.7 384.8C568.75 386.75 566.15 386.75 564.85 384.8L551.85 371.8Z" fill="#0D0D0D"/>
<circle cx="598.5" cy="208.5" r="26.5" fill="#0D0D0D"/>
<path d="M599.196 211.273L589.983 220.993C589.03 221.999 588.036 221.966 587.002 220.893C586.118 220.008 586.082 219.136 586.897 218.277L596.11 208.557L587.231 199.931C586.47 199.21 586.519 198.348 587.377 197.344C587.771 196.879 588.195 196.604 588.647 196.521C589.099 196.437 589.546 196.604 589.988 197.023L598.867 205.649L607.661 196.371C608.056 195.953 608.481 195.727 608.934 195.691C609.411 195.63 609.895 195.833 610.386 196.298C611.441 197.298 611.562 198.228 610.748 199.087L601.953 208.365L610.789 216.74C611.207 217.136 611.398 217.573 611.363 218.053C611.328 218.532 611.101 218.993 610.682 219.434C609.775 220.392 608.892 220.463 608.032 219.649L599.196 211.273Z" fill="#DB1621"/>
</svg>
