<svg width="416" height="416" viewBox="0 0 416 416" fill="none" xmlns="http://www.w3.org/2000/svg">
<path d="M403 181.35L365.3 143.65L323.05 185.9C321.1 187.85 317.85 187.85 316.55 185.9L230.1 99.45C228.15 97.5 228.15 94.25 230.1 92.95L272.35 50.7L234.65 13L13 234.65L50.7 272.35L91.65 231.4C93.6 229.45 96.85 229.45 98.15 231.4L183.95 317.2C185.9 319.15 185.9 322.4 183.95 323.7L143 364.65L180.7 402.35L403 181.35ZM352.95 181.35C351 179.4 351 176.8 352.95 175.5L365.95 162.5C367.9 160.55 370.5 160.55 371.8 162.5L384.8 175.5C386.75 177.45 386.75 180.05 384.8 181.35L371.8 194.35C369.85 196.3 367.25 196.3 365.95 194.35L352.95 181.35ZM221.65 50.05C219.7 48.1 219.7 45.5 221.65 44.2L234.65 31.2C236.6 29.25 239.2 29.25 240.5 31.2L253.5 44.2C255.45 46.15 255.45 48.75 253.5 50.05L240.5 63.05C238.55 65 235.95 65 234.65 63.05L221.65 50.05V50.05ZM62.4 234.65C64.35 236.6 64.35 239.2 62.4 240.5L49.4 253.5C47.45 255.45 44.85 255.45 43.55 253.5L30.55 240.5C28.6 238.55 28.6 235.95 30.55 234.65L43.55 221.65C45.5 219.7 48.1 219.7 49.4 221.65L62.4 234.65ZM270.4 289.25C272.35 291.2 272.35 293.8 270.4 295.1L257.4 308.1C255.45 310.05 252.85 310.05 251.55 308.1L238.55 295.1C236.6 293.15 236.6 290.55 238.55 289.25L251.55 276.25C253.5 274.3 256.1 274.3 257.4 276.25L270.4 289.25ZM308.1 250.9C310.05 252.85 310.05 255.45 308.1 256.75L295.1 269.75C293.15 271.7 290.55 271.7 289.25 269.75L276.25 256.75C274.3 254.8 274.3 252.2 276.25 250.9L289.25 237.9C291.2 235.95 293.8 235.95 295.1 237.9L308.1 250.9ZM183.3 87.75C181.35 85.8 181.35 83.2 183.3 81.9L196.3 68.9C198.25 66.95 200.85 66.95 202.15 68.9L215.15 81.9C217.1 83.85 217.1 86.45 215.15 87.75L202.15 100.75C200.2 102.7 197.6 102.7 196.3 100.75L183.3 87.75V87.75ZM314.6 219.05C312.65 217.1 312.65 214.5 314.6 213.2L327.6 200.2C329.55 198.25 332.15 198.25 333.45 200.2L346.45 213.2C348.4 215.15 348.4 217.75 346.45 219.05L333.45 232.05C331.5 234 328.9 234 327.6 232.05L314.6 219.05ZM145.6 126.1C143.65 124.15 143.65 121.55 145.6 120.25L158.6 107.25C160.55 105.3 163.15 105.3 164.45 107.25L177.45 120.25C179.4 122.2 179.4 124.8 177.45 126.1L164.45 139.1C162.5 141.05 159.9 141.05 158.6 139.1L145.6 126.1ZM107.25 164.45C105.3 162.5 105.3 159.9 107.25 158.6L120.25 145.6C122.2 143.65 124.8 143.65 126.1 145.6L139.1 158.6C141.05 160.55 141.05 163.15 139.1 164.45L126.1 177.45C124.15 179.4 121.55 179.4 120.25 177.45L107.25 164.45ZM118.95 211.25C117 209.3 117 206.05 118.95 204.75L204.75 118.95C206.7 117 209.95 117 211.25 118.95L297.05 204.75C299 206.7 299 209.95 297.05 211.25L211.25 297.05C209.3 299 206.05 299 204.75 297.05L118.95 211.25V211.25ZM68.9 202.15C66.95 200.2 66.95 197.6 68.9 196.3L81.9 183.3C83.85 181.35 86.45 181.35 87.75 183.3L100.75 196.3C102.7 198.25 102.7 200.85 100.75 202.15L87.75 215.15C85.8 217.1 83.2 217.1 81.9 215.15L68.9 202.15ZM200.2 333.45C198.25 331.5 198.25 328.9 200.2 327.6L213.2 314.6C215.15 312.65 217.75 312.65 219.05 314.6L232.05 327.6C234 329.55 234 332.15 232.05 333.45L219.05 346.45C217.1 348.4 214.5 348.4 213.2 346.45L200.2 333.45V333.45ZM161.85 371.8C159.9 369.85 159.9 367.25 161.85 365.95L174.85 352.95C176.8 351 179.4 351 180.7 352.95L193.7 365.95C195.65 367.9 195.65 370.5 193.7 371.8L180.7 384.8C178.75 386.75 176.15 386.75 174.85 384.8L161.85 371.8Z" fill="#0D0D0D"/>
<circle cx="208.5" cy="208.5" r="26.5" fill="#0D0D0D"/>
<path d="M209.196 211.273L199.983 220.993C199.03 221.999 198.036 221.966 197.002 220.893C196.118 220.008 196.082 219.136 196.897 218.277L206.11 208.557L197.231 199.931C196.47 199.21 196.519 198.348 197.377 197.344C197.771 196.879 198.195 196.604 198.647 196.521C199.099 196.437 199.546 196.604 199.988 197.023L208.867 205.649L217.661 196.371C218.056 195.953 218.481 195.727 218.934 195.691C219.411 195.63 219.895 195.833 220.386 196.298C221.441 197.298 221.562 198.228 220.748 199.087L211.953 208.365L220.789 216.74C221.207 217.136 221.398 217.573 221.363 218.053C221.328 218.532 221.101 218.993 220.682 219.434C219.775 220.392 218.892 220.463 218.032 219.649L209.196 211.273Z" fill="#DB1621"/>
</svg>
